Coordinates
version=1
nRows=9
nColumns=63
inDegrees=yes

Units are S.I. units (second, meters, Newtons, ...)
If the header above contains a line with 'inDegrees', this indicates whether rotational values are in degrees (yes) or radians (no).

endheader
time	pelvis_tilt	pelvis_list	pelvis_rotation	pelvis_tx	pelvis_ty	pelvis_tz	hip_flexion_r	hip_adduction_r	hip_rotation_r	knee_angle_r	knee_angle_r_beta	ankle_angle_r	subtalar_angle_r	mtp_angle_r	hip_flexion_l	hip_adduction_l	hip_rotation_l	knee_angle_l	knee_angle_l_beta	ankle_angle_l	subtalar_angle_l	mtp_angle_l	L5_S1_Flex_Ext	L5_S1_Lat_Bending	L5_S1_axial_rotation	L4_L5_Flex_Ext	L4_L5_Lat_Bending	L4_L5_axial_rotation	L3_L4_Flex_Ext	L3_L4_Lat_Bending	L3_L4_axial_rotation	L2_L3_Flex_Ext	L2_L3_Lat_Bending	L2_L3_axial_rotation	L1_L2_Flex_Ext	L1_L2_Lat_Bending	L1_L2_axial_rotation	L1_T12_Flex_Ext	L1_T12_Lat_Bending	L1_T12_axial_rotation	Abs_r3	Abs_r2	Abs_r1	Abs_t1	Abs_t2	neck_flexion	neck_bending	neck_rotation	arm_flex_r	arm_add_r	arm_rot_r	elbow_flex_r	pro_sup_r	wrist_flex_r	wrist_dev_r	arm_flex_l	arm_add_l	arm_rot_l	elbow_flex_l	pro_sup_l	wrist_flex_l	wrist_dev_l
      3.25000000	      3.69701444	      2.04891370	     91.30207376	      0.16778500	      1.00838024	      0.49232409	     -1.63872729	      3.16791789	     -5.77088439	      6.63900307	      0.11587246	     27.36329927	     15.94056503	      0.00000000	     -1.69951600	     -3.48990025	     -2.58512381	      4.23900234	      0.07398455	     30.82909040	      0.31749749	      0.00000000	     -0.32425205	      0.78350203	      3.71435863	     -0.60216848	      1.04205770	      3.94650604	     -0.53271369	      1.90500684	      3.94650604	     -0.37058766	      1.90500684	      3.25006380	     -0.30110045	      1.59771734	      3.01791639	     -0.18527762	      1.21364465	      2.78576897	     -2.31609995	      8.86313169	     20.65814839	      0.00000000	      0.00000000	     11.01216989	    -12.75169632	    -12.37162589	    -20.85324131	     -8.67834874	    -16.70322449	     93.99651382	     70.71111922	     -4.40198945	     -8.51517771	     32.19341335	     17.29741121	    161.59993380	      0.12136758	      0.73550951	    -69.56729770	    -21.44399156
      3.26666667	      3.73430504	      2.08029849	     91.35194090	      0.16736140	      1.00850238	      0.49226416	     -1.69148274	      3.17096017	     -5.94518581	      6.68775730	      0.11672338	     27.19428902	     15.95771367	      0.00000000	     -1.80908935	     -3.52699498	     -2.46076049	      4.10404459	      0.07162909	     30.85109169	      0.43712054	      0.00000000	     -0.32557145	      0.79401519	      3.70065045	     -0.60461874	      1.05604020	      3.93194110	     -0.53488133	      1.93056853	      3.93194110	     -0.37209561	      1.93056853	      3.23806914	     -0.30232565	      1.61915577	      3.00677849	     -0.18603153	      1.22992952	      2.77548784	     -2.32552430	      8.98205860	     20.58190761	      0.00000000	      0.00000000	     10.91356241	    -13.13915153	    -12.28133572	    -20.94580235	     -8.74343280	    -16.77977981	     94.03011933	     70.45551779	     -3.97125583	     -8.69836609	     32.06349212	     17.36122447	    161.54770453	      0.12162208	      0.73041466	    -69.58135961	    -21.14220631
      3.28333333	      3.73878682	      2.10574849	     91.22827042	      0.16729681	      1.00860974	      0.49214936	     -1.72691321	      3.15005067	     -5.84716097	      6.74640772	      0.11774703	     27.04588596	     15.85267321	      0.00000000	     -1.93542930	     -3.58158869	     -3.95457456	      4.01166154	      0.07001670	     31.31606257	      2.51766133	      0.00000000	     -0.32795455	      0.79621567	      3.73435581	     -0.60904439	      1.05896684	      3.96775305	     -0.53879653	      1.93591878	      3.96775305	     -0.37481925	      1.93591878	      3.26756134	     -0.30453859	      1.62364300	      3.03416410	     -0.18739323	      1.23333807	      2.80076686	     -2.34254654	      9.00695091	     20.76936672	      0.00000000	      0.00000000	     10.75769003	    -13.63208228	    -12.36981245	    -21.08765741	     -8.78641410	    -16.77096206	     94.14122347	     69.89201892	     -4.01770809	     -8.99960979	     31.97045090	     17.40764889	    161.62370176	      0.12214954	      0.72945229	    -69.58363842	    -21.29309442
      3.30000000	      3.74307603	      2.12020488	     91.33026629	      0.16694334	      1.00866360	      0.49204182	     -1.76833718	      3.13496923	     -6.02384545	      6.79273524	      0.11855560	     26.95942775	     15.82440623	      0.00000000	     -2.05092252	     -3.59278469	     -4.11073703	      3.83276857	      0.06689443	     31.53431504	      3.08493374	      0.00000000	     -0.32761875	      0.80114790	      3.71410918	     -0.60842077	      1.06552671	      3.94624100	     -0.53824484	      1.94791101	      3.94624100	     -0.37443547	      1.94791101	      3.24984553	     -0.30422677	      1.63370081	      3.01771371	     -0.18720135	      1.24097810	      2.78558189	     -2.34014795	      9.06274532	     20.65676103	      0.00000000	      0.00000000	     10.68653193	    -14.24661050	    -12.09982594	    -21.15179356	     -8.76185135	    -17.03738572	     94.33447531	     71.68661582	     -4.20152420	     -8.63572136	     31.93971551	     17.42806518	    161.94038505	      0.12170095	      0.73573901	    -69.58783566	    -21.22226345
      3.31666667	      3.74881307	      2.16258789	     91.43969855	      0.16667358	      1.00874494	      0.49180840	     -1.91442732	      3.16757697	     -5.74464395	      6.68590426	      0.11669104	     26.84407080	     15.24580603	      0.00000000	     -2.25254782	     -3.59854640	     -3.97364516	      3.54867059	      0.06193599	     31.60032107	      3.29712288	      0.00000000	     -0.32801302	      0.80197770	      3.67464651	     -0.60915298	      1.06663034	      3.90431192	     -0.53889259	      1.94992858	      3.90431192	     -0.37488608	      1.94992858	      3.21531570	     -0.30459289	      1.63539293	      2.98565029	     -0.18742664	      1.24226346	      2.75598488	     -2.34296420	      9.07213216	     20.43728151	      0.00000000	      0.00000000	     10.52008169	    -14.67806795	    -11.92600231	    -21.06977420	     -8.83599950	    -16.92949907	     94.40169384	     70.74760186	     -3.93943278	     -8.31398011	     31.95332623	     17.38299233	    162.07411278	      0.12230471	      0.74563679	    -69.58458316	    -21.49255373
      3.33333333	      3.68937081	      2.08758861	     91.37766394	      0.16676133	      1.00859310	      0.49185508	     -1.76465258	      3.05477737	     -6.31700001	      6.86900505	      0.11988675	     27.06102339	     15.98515095	      0.00000000	     -2.28781233	     -3.52716922	     -4.31996163	      3.34749476	      0.05842481	     31.63295723	      3.73938803	      0.00000000	     -0.32649839	      0.79177086	      3.69820879	     -0.60634016	      1.05305525	      3.92934684	     -0.53640421	      1.92511167	      3.92934684	     -0.37315501	      1.92511167	      3.23593269	     -0.30318641	      1.61457914	      3.00479464	     -0.18656118	      1.22645307	      2.77365659	     -2.33214535	      8.95667035	     20.56832783	      0.00000000	      0.00000000	     10.65075023	    -15.09792592	    -12.08442889	    -20.96825267	     -8.74371766	    -17.28021746	     94.69510045	     74.71211628	     -5.53201094	     -7.65297824	     32.11128715	     17.39252986	    162.86104435	      0.12113222	      0.76249546	    -69.57206981	    -21.49891173
      3.35000000	      3.70775753	      2.02871149	     91.39757729	      0.16661381	      1.00850060	      0.49182898	     -1.72157858	      3.08016298	     -6.33268760	      6.82214805	      0.11906895	     27.18535088	     15.97835875	      0.00000000	     -2.26905620	     -3.53775386	     -4.29148074	      3.25791901	      0.05686141	     31.60119683	      3.75443740	      0.00000000	     -0.31920585	      0.79110645	      3.69515307	     -0.59279718	      1.05217158	      3.92610014	     -0.52442329	      1.92349623	      3.92610014	     -0.36482036	      1.92349623	      3.23325894	     -0.29641455	      1.61322428	      3.00231187	     -0.18239422	      1.22542390	      2.77136480	     -2.28005546	      8.94915443	     20.55133284	      0.00000000	      0.00000000	     10.67549238	    -15.09117965	    -12.09192888	    -20.70318316	     -8.83979641	    -17.33887414	     94.67324249	     74.76257406	     -5.58650789	     -7.60390429	     32.24020011	     17.47481190	    162.95047804	      0.12167272	      0.81031434	    -69.56411343	    -21.58695987
      3.36666667	      3.68907999	      1.99107033	     91.61766686	      0.16665455	      1.00852869	      0.49179800	     -1.67268660	      3.10545320	     -6.59226664	      6.82214705	      0.11906893	     27.33960086	     16.03326645	      0.00000000	     -2.41754289	     -3.52118956	     -4.01868486	      2.76824984	      0.04831507	     31.16792300	      3.74472521	      0.00000000	     -0.31642092	      0.77722841	      3.63861455	     -0.58762529	      1.03371378	      3.86602796	     -0.51984793	      1.88975315	      3.86602796	     -0.36163747	      1.88975315	      3.18378773	     -0.29382847	      1.58492417	      2.95637432	     -0.18080291	      1.20392680	      2.72896091	     -2.26016298	      8.79216319	     20.23688252	      0.00000000	      0.00000000	     11.00861999	    -14.53072422	    -12.05816028	    -20.25237340	     -9.06327637	    -17.07746230	     94.56799986	     75.62445721	     -6.21987088	     -7.09828764	     32.50385948	     17.29440905	    163.84845435	      0.11957812	      0.81011546	    -69.53692133	    -22.17520478
      3.38333333	      3.69671328	      1.95394311	     91.70181625	      0.16658729	      1.00851910	      0.49188769	     -1.63054382	      3.14783598	     -6.63125348	      6.73171557	      0.11749060	     27.53337553	     16.05753950	      0.00000000	     -2.35517324	     -3.52765960	     -3.99619665	      2.72285156	      0.04752272	     30.98692341	      3.70253040	      0.00000000	     -0.31015024	      0.77736181	      3.64507519	     -0.57598000	      1.03389121	      3.87289239	     -0.50954582	      1.89007751	      3.87289239	     -0.35447070	      1.89007751	      3.18944079	     -0.28800551	      1.58519621	      2.96162359	     -0.17721984	      1.20413345	      2.73380639	     -2.21537212	      8.79367228	     20.27281469	      0.00000000	      0.00000000	     10.99928012	    -14.32217737	    -12.05171297	    -19.94622842	     -9.22124740	    -17.13136785	     94.48783462	     75.79042543	     -6.35827000	     -7.05230122	     32.68909718	     17.41701891	    163.93173751	      0.11860694	      0.84385529	    -69.51656018	    -22.24551086
